<svg width="349" height="99" viewBox="0 0 349 99" fill="none" xmlns="http://www.w3.org/2000/svg">
<rect x="36" width="72" height="72" rx="20" transform="rotate(30 36 0)" fill="#6272A4"/>
<rect x="37.8301" y="7" width="62" height="62" rx="20" transform="rotate(30 37.8301 7)" fill="#44475A"/>
<rect x="40.0262" y="15" width="50" height="50" rx="20" transform="rotate(30 40.0262 15)" fill="#282A36"/>
<path d="M67.6146 51.1794L63.2263 36.7207C63.0332 36.087 62.677 35.5153 62.1932 35.0628C61.7094 34.6102 61.1151 34.2929 60.47 34.1426L45.6245 30.753C44.9787 30.6025 44.3047 30.6247 43.6702 30.8173C43.0357 31.0098 42.463 31.366 42.0098 31.8501L31.5526 42.9192C31.0999 43.4027 30.7822 43.9968 30.6316 44.6419C30.4809 45.287 30.5025 45.9603 30.6943 46.5944L35.0826 61.0531C35.2756 61.6867 35.6319 62.2585 36.1157 62.711C36.5994 63.1635 37.1937 63.4809 37.8389 63.6312L52.6844 67.0208C53.3301 67.1713 54.0042 67.1491 54.6387 66.9565C55.2732 66.764 55.8458 66.4077 56.299 65.9237L66.7562 54.8546C67.209 54.3711 67.5266 53.777 67.6773 53.1319C67.8279 52.4868 67.8063 51.8135 67.6146 51.1794Z" stroke="white" stroke-width="2" stroke-linecap="round" stroke-linejoin="round"/>
<path d="M30.6118 44.5667L49.1599 48.905L62.1678 34.9892" stroke="white" stroke-width="2" stroke-linecap="round" stroke-linejoin="round"/>
<path d="M54.6837 67.1048L49.1544 48.8869" stroke="white" stroke-width="2" stroke-linecap="round" stroke-linejoin="round"/>
<path d="M110.256 63.504C106.2 63.504 103.104 62.376 100.968 60.12C98.856 57.864 97.8 54.66 97.8 50.508C97.8 48.444 98.124 46.608 98.772 45C99.42 43.368 100.308 42 101.436 40.896C102.564 39.768 103.908 38.916 105.468 38.34C107.028 37.764 108.72 37.476 110.544 37.476C111.6 37.476 112.56 37.56 113.424 37.728C114.288 37.872 115.044 38.052 115.692 38.268C116.34 38.46 116.88 38.664 117.312 38.88C117.744 39.096 118.056 39.264 118.248 39.384L116.628 43.92C115.86 43.512 114.96 43.164 113.928 42.876C112.92 42.588 111.768 42.444 110.472 42.444C109.608 42.444 108.756 42.588 107.916 42.876C107.1 43.164 106.368 43.632 105.72 44.28C105.096 44.904 104.592 45.72 104.208 46.728C103.824 47.736 103.632 48.96 103.632 50.4C103.632 51.552 103.752 52.632 103.992 53.64C104.256 54.624 104.664 55.476 105.216 56.196C105.792 56.916 106.536 57.492 107.448 57.924C108.36 58.332 109.464 58.536 110.76 58.536C111.576 58.536 112.308 58.488 112.956 58.392C113.604 58.296 114.18 58.188 114.684 58.068C115.188 57.924 115.632 57.768 116.016 57.6C116.4 57.432 116.748 57.276 117.06 57.132L118.608 61.632C117.816 62.112 116.7 62.544 115.26 62.928C113.82 63.312 112.152 63.504 110.256 63.504ZM139.154 53.496C139.154 54.984 138.938 56.352 138.506 57.6C138.074 58.824 137.45 59.88 136.634 60.768C135.818 61.632 134.834 62.304 133.682 62.784C132.554 63.264 131.282 63.504 129.866 63.504C128.474 63.504 127.202 63.264 126.05 62.784C124.922 62.304 123.95 61.632 123.134 60.768C122.318 59.88 121.682 58.824 121.226 57.6C120.77 56.352 120.542 54.984 120.542 53.496C120.542 52.008 120.77 50.652 121.226 49.428C121.706 48.204 122.354 47.16 123.17 46.296C124.01 45.432 124.994 44.76 126.122 44.28C127.274 43.8 128.522 43.56 129.866 43.56C131.234 43.56 132.482 43.8 133.61 44.28C134.762 44.76 135.746 45.432 136.562 46.296C137.378 47.16 138.014 48.204 138.47 49.428C138.926 50.652 139.154 52.008 139.154 53.496ZM133.682 53.496C133.682 51.84 133.346 50.544 132.674 49.608C132.026 48.648 131.09 48.168 129.866 48.168C128.642 48.168 127.694 48.648 127.022 49.608C126.35 50.544 126.014 51.84 126.014 53.496C126.014 55.152 126.35 56.472 127.022 57.456C127.694 58.416 128.642 58.896 129.866 58.896C131.09 58.896 132.026 58.416 132.674 57.456C133.346 56.472 133.682 55.152 133.682 53.496ZM147.881 53.388C147.881 55.044 148.253 56.376 148.997 57.384C149.741 58.392 150.845 58.896 152.309 58.896C152.789 58.896 153.233 58.884 153.641 58.86C154.049 58.812 154.385 58.764 154.649 58.716V48.96C154.313 48.744 153.869 48.564 153.317 48.42C152.789 48.276 152.249 48.204 151.697 48.204C149.153 48.204 147.881 49.932 147.881 53.388ZM160.013 62.388C159.533 62.532 158.981 62.676 158.357 62.82C157.733 62.94 157.073 63.048 156.377 63.144C155.705 63.24 155.009 63.312 154.289 63.36C153.593 63.432 152.921 63.468 152.273 63.468C150.713 63.468 149.321 63.24 148.097 62.784C146.873 62.328 145.841 61.68 145.001 60.84C144.161 59.976 143.513 58.944 143.057 57.744C142.625 56.52 142.409 55.152 142.409 53.64C142.409 52.104 142.601 50.724 142.985 49.5C143.369 48.252 143.921 47.196 144.641 46.332C145.361 45.468 146.237 44.808 147.269 44.352C148.325 43.896 149.525 43.668 150.869 43.668C151.613 43.668 152.273 43.74 152.849 43.884C153.449 44.028 154.049 44.232 154.649 44.496V35.928L160.013 35.064V62.388ZM164.136 53.676C164.136 51.996 164.388 50.532 164.892 49.284C165.42 48.012 166.104 46.956 166.944 46.116C167.784 45.276 168.744 44.64 169.824 44.208C170.928 43.776 172.056 43.56 173.208 43.56C175.896 43.56 178.02 44.388 179.58 46.044C181.14 47.676 181.92 50.088 181.92 53.28C181.92 53.592 181.908 53.94 181.884 54.324C181.86 54.684 181.836 55.008 181.812 55.296H169.644C169.764 56.4 170.28 57.276 171.192 57.924C172.104 58.572 173.328 58.896 174.864 58.896C175.848 58.896 176.808 58.812 177.744 58.644C178.704 58.452 179.484 58.224 180.084 57.96L180.804 62.316C180.516 62.46 180.132 62.604 179.652 62.748C179.172 62.892 178.632 63.012 178.032 63.108C177.456 63.228 176.832 63.324 176.16 63.396C175.488 63.468 174.816 63.504 174.144 63.504C172.44 63.504 170.952 63.252 169.68 62.748C168.432 62.244 167.388 61.56 166.548 60.696C165.732 59.808 165.12 58.764 164.712 57.564C164.328 56.364 164.136 55.068 164.136 53.676ZM176.736 51.624C176.712 51.168 176.628 50.724 176.484 50.292C176.364 49.86 176.16 49.476 175.872 49.14C175.608 48.804 175.26 48.528 174.828 48.312C174.42 48.096 173.904 47.988 173.28 47.988C172.68 47.988 172.164 48.096 171.732 48.312C171.3 48.504 170.94 48.768 170.652 49.104C170.364 49.44 170.136 49.836 169.968 50.292C169.824 50.724 169.716 51.168 169.644 51.624H176.736ZM197.795 63.504C193.739 63.504 190.643 62.376 188.507 60.12C186.395 57.864 185.339 54.66 185.339 50.508C185.339 48.444 185.663 46.608 186.311 45C186.959 43.368 187.847 42 188.975 40.896C190.103 39.768 191.447 38.916 193.007 38.34C194.567 37.764 196.259 37.476 198.083 37.476C199.139 37.476 200.099 37.56 200.963 37.728C201.827 37.872 202.583 38.052 203.231 38.268C203.879 38.46 204.419 38.664 204.851 38.88C205.283 39.096 205.595 39.264 205.787 39.384L204.167 43.92C203.399 43.512 202.499 43.164 201.467 42.876C200.459 42.588 199.307 42.444 198.011 42.444C197.147 42.444 196.295 42.588 195.455 42.876C194.639 43.164 193.907 43.632 193.259 44.28C192.635 44.904 192.131 45.72 191.747 46.728C191.363 47.736 191.171 48.96 191.171 50.4C191.171 51.552 191.291 52.632 191.531 53.64C191.795 54.624 192.203 55.476 192.755 56.196C193.331 56.916 194.075 57.492 194.987 57.924C195.899 58.332 197.003 58.536 198.299 58.536C199.115 58.536 199.847 58.488 200.495 58.392C201.143 58.296 201.719 58.188 202.223 58.068C202.727 57.924 203.171 57.768 203.555 57.6C203.939 57.432 204.287 57.276 204.599 57.132L206.147 61.632C205.355 62.112 204.239 62.544 202.799 62.928C201.359 63.312 199.691 63.504 197.795 63.504ZM226.693 53.496C226.693 54.984 226.477 56.352 226.045 57.6C225.613 58.824 224.989 59.88 224.173 60.768C223.357 61.632 222.373 62.304 221.221 62.784C220.093 63.264 218.821 63.504 217.405 63.504C216.013 63.504 214.741 63.264 213.589 62.784C212.461 62.304 211.489 61.632 210.673 60.768C209.857 59.88 209.221 58.824 208.765 57.6C208.309 56.352 208.081 54.984 208.081 53.496C208.081 52.008 208.309 50.652 208.765 49.428C209.245 48.204 209.893 47.16 210.709 46.296C211.549 45.432 212.533 44.76 213.661 44.28C214.813 43.8 216.061 43.56 217.405 43.56C218.773 43.56 220.021 43.8 221.149 44.28C222.301 44.76 223.285 45.432 224.101 46.296C224.917 47.16 225.553 48.204 226.009 49.428C226.465 50.652 226.693 52.008 226.693 53.496ZM221.221 53.496C221.221 51.84 220.885 50.544 220.213 49.608C219.565 48.648 218.629 48.168 217.405 48.168C216.181 48.168 215.233 48.648 214.561 49.608C213.889 50.544 213.553 51.84 213.553 53.496C213.553 55.152 213.889 56.472 214.561 57.456C215.233 58.416 216.181 58.896 217.405 58.896C218.629 58.896 219.565 58.416 220.213 57.456C220.885 56.472 221.221 55.152 221.221 53.496ZM241.252 52.956C241.252 51.228 241.024 50.004 240.568 49.284C240.136 48.564 239.38 48.204 238.3 48.204C237.964 48.204 237.616 48.228 237.256 48.276C236.896 48.3 236.548 48.336 236.212 48.384V63H230.848V44.712C231.304 44.592 231.832 44.472 232.432 44.352C233.056 44.208 233.704 44.088 234.376 43.992C235.072 43.872 235.78 43.788 236.5 43.74C237.22 43.668 237.928 43.632 238.624 43.632C239.992 43.632 241.096 43.812 241.936 44.172C242.8 44.508 243.508 44.916 244.06 45.396C244.828 44.844 245.704 44.412 246.688 44.1C247.696 43.788 248.62 43.632 249.46 43.632C250.972 43.632 252.208 43.848 253.168 44.28C254.152 44.688 254.932 45.276 255.508 46.044C256.084 46.812 256.48 47.724 256.696 48.78C256.912 49.836 257.02 51.012 257.02 52.308V63H251.656V52.956C251.656 51.228 251.428 50.004 250.972 49.284C250.54 48.564 249.784 48.204 248.704 48.204C248.416 48.204 248.008 48.276 247.48 48.42C246.976 48.564 246.556 48.744 246.22 48.96C246.388 49.512 246.496 50.1 246.544 50.724C246.592 51.324 246.616 51.972 246.616 52.668V63H241.252V52.956ZM278.055 62.352C277.143 62.616 275.967 62.856 274.527 63.072C273.087 63.312 271.575 63.432 269.991 63.432C268.383 63.432 267.039 63.216 265.959 62.784C264.903 62.352 264.063 61.752 263.439 60.984C262.815 60.192 262.371 59.256 262.107 58.176C261.843 57.096 261.711 55.908 261.711 54.612V44.064H267.075V53.964C267.075 55.692 267.303 56.94 267.759 57.708C268.215 58.476 269.067 58.86 270.315 58.86C270.699 58.86 271.107 58.848 271.539 58.824C271.971 58.776 272.355 58.728 272.691 58.68V44.064H278.055V62.352ZM283.09 44.712C284.002 44.448 285.178 44.208 286.618 43.992C288.058 43.752 289.57 43.632 291.154 43.632C292.762 43.632 294.094 43.848 295.15 44.28C296.23 44.688 297.082 45.276 297.706 46.044C298.33 46.812 298.774 47.724 299.038 48.78C299.302 49.836 299.434 51.012 299.434 52.308V63H294.07V52.956C294.07 51.228 293.842 50.004 293.386 49.284C292.93 48.564 292.078 48.204 290.83 48.204C290.446 48.204 290.038 48.228 289.606 48.276C289.174 48.3 288.79 48.336 288.454 48.384V63H283.09V44.712ZM309.654 63H304.29V44.064H309.654V63ZM310.158 38.592C310.158 39.576 309.834 40.356 309.186 40.932C308.562 41.484 307.818 41.76 306.954 41.76C306.09 41.76 305.334 41.484 304.686 40.932C304.062 40.356 303.75 39.576 303.75 38.592C303.75 37.608 304.062 36.84 304.686 36.288C305.334 35.712 306.09 35.424 306.954 35.424C307.818 35.424 308.562 35.712 309.186 36.288C309.834 36.84 310.158 37.608 310.158 38.592ZM314.516 39.348L319.88 38.484V44.064H326.324V48.528H319.88V55.188C319.88 56.316 320.072 57.216 320.456 57.888C320.864 58.56 321.668 58.896 322.868 58.896C323.444 58.896 324.032 58.848 324.632 58.752C325.256 58.632 325.82 58.476 326.324 58.284L327.08 62.46C326.432 62.724 325.712 62.952 324.92 63.144C324.128 63.336 323.156 63.432 322.004 63.432C320.54 63.432 319.328 63.24 318.368 62.856C317.408 62.448 316.64 61.896 316.064 61.2C315.488 60.48 315.08 59.616 314.84 58.608C314.624 57.6 314.516 56.484 314.516 55.26V39.348ZM347.855 44.064C346.775 47.712 345.647 51.132 344.471 54.324C343.295 57.516 342.011 60.612 340.619 63.612C340.115 64.692 339.611 65.604 339.107 66.348C338.603 67.116 338.051 67.74 337.451 68.22C336.851 68.724 336.167 69.084 335.399 69.3C334.655 69.54 333.779 69.66 332.771 69.66C331.931 69.66 331.151 69.576 330.431 69.408C329.735 69.264 329.159 69.096 328.703 68.904L329.639 64.62C330.191 64.812 330.683 64.944 331.115 65.016C331.547 65.088 332.003 65.124 332.483 65.124C333.443 65.124 334.175 64.86 334.679 64.332C335.207 63.828 335.651 63.12 336.011 62.208C334.787 59.808 333.563 57.12 332.339 54.144C331.115 51.144 329.963 47.784 328.883 44.064H334.571C334.811 45 335.087 46.02 335.399 47.124C335.735 48.204 336.083 49.308 336.443 50.436C336.803 51.54 337.163 52.62 337.523 53.676C337.907 54.732 338.267 55.692 338.603 56.556C338.915 55.692 339.239 54.732 339.575 53.676C339.911 52.62 340.235 51.54 340.547 50.436C340.883 49.308 341.195 48.204 341.483 47.124C341.795 46.02 342.071 45 342.311 44.064H347.855Z" fill="#6272A4"/>
</svg>
