<svg width="552" height="946" viewBox="0 0 552 946" fill="none" xmlns="http://www.w3.org/2000/svg">
<path d="M521 734.5L518 759C525.2 763 548.333 762 559 761C556.833 747.667 554.4 723.8 550 731C545.6 738.2 528.833 736.333 521 734.5Z" fill="#A26E46"/>
<path d="M571.5 447.5C511.1 443.1 436.667 360.667 407.5 329.5L538.5 274.5C548.1 294.5 564.833 303.5 571.5 305.5V380C558.833 367.667 532 343.9 530 347.5C528 351.1 557.167 378.667 571.5 392V447.5Z" fill="#C4C4C4"/>
<path d="M123.457 548.457C123.857 550.857 132.957 572.457 137.457 582.957L80.957 608.457C75.357 581.657 58.2903 561.957 50.457 555.457L97.457 502.957C100.257 499.757 97.6237 497.624 97.457 494.957C90.257 490.157 86.457 482.624 85.957 478.457C84.757 470.057 90.7903 462.957 93.957 462.957C95.957 463.357 104.457 471.457 107.457 474.457L120.957 480.457C124.957 490.957 129.957 523.457 130.457 526.457C130.857 528.857 125.957 542.124 123.457 548.457Z" fill="#A26E46"/>
<path d="M115.957 426.957C116.29 434.624 119.857 453.657 131.457 468.457C131.124 477.124 129.457 496.557 125.457 504.957L121.457 481.957C116.79 479.29 106.957 473.857 104.957 473.457C102.957 473.057 99.457 468.29 97.957 465.957C94.2903 462.957 87.157 460.657 87.957 475.457C88.2903 480.124 90.757 490.457 97.957 494.457C99.2903 494.457 101.157 496.157 97.957 502.957C96.7903 506.124 92.257 514.557 83.457 522.957L47.457 558.957C40.457 561.124 27.157 561.757 29.957 546.957L43.3202 527.143C38.3388 534.45 29.6765 546.197 27.457 545.457C24.457 544.457 13.457 542.457 17.457 530.457L24.7889 520.192C21.6818 524.003 18.087 527.457 15.457 527.457C9.95699 527.457 5.45699 520.457 7.45699 514.457L10.9506 509.435C8.99214 511.729 7.02395 513.237 5.95699 511.957C3.45699 508.957 -2.04301 508.457 1.95699 499.957L15.457 477.957C22.457 463.457 38.057 432.357 44.457 423.957C49.457 423.457 59.657 419.457 60.457 407.457L70.957 377.457L125.457 401.457L115.957 426.957Z" fill="#F7D4AC"/>
<path fill-rule="evenodd" clip-rule="evenodd" d="M73.4933 378.782L70.457 377.457L59.457 407.457C58.657 419.457 49.457 422.457 44.457 422.957C38.057 431.357 22.457 463.457 15.457 477.957L1.95698 499.957C-1.08706 506.426 1.37068 508.261 3.82112 510.091C4.59067 510.666 5.3595 511.24 5.95698 511.957C6.604 512.734 7.58245 512.484 8.68917 511.656C8.13842 511.075 7.48003 510.583 6.82112 510.091C4.37068 508.261 1.91294 506.426 4.95698 499.957L18.457 477.957C25.457 463.457 41.057 432.357 47.457 423.957C52.457 423.457 62.657 419.457 63.457 407.457L73.4933 378.782ZM9.09485 512.103L7.45698 514.457C5.45698 520.457 9.95698 527.457 15.457 527.457C15.8597 527.457 16.2851 527.376 16.7279 527.225C12.0662 525.967 8.67157 519.813 10.457 514.457L13.9506 509.435C12.0737 511.633 10.1878 513.111 9.09485 512.103ZM19.7778 527.208L17.457 530.457C13.8008 541.426 22.6767 544.039 26.5206 545.171C26.8821 545.278 27.1991 545.371 27.457 545.457C27.7958 545.57 28.2847 545.392 28.8877 544.983C24.7939 543.747 16.9895 540.86 20.457 530.457L27.7889 520.192C25.1754 523.398 22.217 526.351 19.7778 527.208ZM30.9763 545.446L29.957 546.957C27.832 558.189 34.9799 560.532 41.6095 560.062C36.0355 559.624 31.1523 556.496 32.957 546.957L46.3201 527.143C41.6668 533.969 33.8013 544.669 30.9763 545.446ZM94.3968 463.986C95.3409 464.264 96.2712 464.75 97.0959 465.313C97.9358 466.259 98.4432 466.713 97.957 465.957C97.6872 465.736 97.3987 465.52 97.0959 465.313C96.7038 464.871 96.2392 464.322 95.7695 463.739C95.2979 463.743 94.8363 463.819 94.3968 463.986ZM127.437 499.09L125.457 504.957C126.205 503.387 126.871 501.432 127.462 499.234L127.437 499.09Z" fill="#F2DCC3"/>
<path fill-rule="evenodd" clip-rule="evenodd" d="M129.517 563.767C126.169 555.627 123.618 549.425 123.457 548.457C125.957 542.124 130.857 528.857 130.457 526.457C129.957 523.457 123.957 490.957 119.957 480.457L107.457 474.457C104.457 471.457 95.957 463.357 93.957 462.957C92.4635 462.957 90.7771 463.869 89.538 465.714C90.3357 465.209 91.1729 464.957 91.957 464.957C93.957 465.357 102.457 473.457 105.457 476.457L117.957 482.457C121.957 492.957 127.957 525.457 128.457 528.457C128.857 530.857 123.957 544.124 121.457 550.457C121.857 552.857 130.957 574.457 135.457 584.957L84.1016 608.135L144.457 601.957C141.175 592.11 134.473 575.815 129.517 563.767Z" fill="#95643C"/>
<path d="M36.457 436.957C43.457 441.957 56.957 452.757 54.957 455.957C53.2731 458.652 50.762 459.172 49.2146 459.07C50.8759 460.47 51.7942 461.67 51.457 462.457C49.957 465.957 47.457 469.457 44.957 467.957C43.811 467.27 39.327 465.236 34.6091 463.154C42.6277 466.948 50.7925 471.672 49.957 474.457C48.757 478.457 45.1237 478.791 43.457 478.457C41.2717 478.065 38.2387 477.439 35.023 476.644C38.4004 478.382 40.6266 480.118 39.957 481.457C37.957 485.457 36.957 492.457 13.457 481.457C13.2903 477.791 14.157 470.457 18.957 470.457C18.1237 465.957 18.157 457.357 24.957 458.957C24.2903 455.291 24.457 447.957 30.457 447.957C29.6237 443.624 29.6571 435.357 36.457 436.957Z" fill="#95643C"/>
<path fill-rule="evenodd" clip-rule="evenodd" d="M30.0931 443.583C30.061 444.752 30.1467 445.923 30.2918 446.959C30.3464 446.958 30.4014 446.957 30.457 446.957C30.269 445.98 30.1251 444.802 30.0931 443.583ZM24.6973 455.415C24.6711 456.296 24.717 457.154 24.8051 457.923C24.8553 457.934 24.906 457.945 24.957 457.957C24.8241 457.226 24.7243 456.35 24.6973 455.415ZM18.5926 465.929C18.5616 467.155 18.6496 468.38 18.7972 469.46C18.85 469.458 18.9032 469.457 18.957 469.457C18.768 468.437 18.6236 467.205 18.5926 465.929ZM13.4442 480.092C13.4325 480.583 13.4382 481.044 13.457 481.457C35.273 491.669 37.6981 486.368 39.5338 482.356C39.6755 482.046 39.8137 481.744 39.957 481.457C40.1165 481.138 40.1117 480.797 39.9663 480.438C39.9632 480.445 39.9601 480.451 39.957 480.457C39.8137 480.744 39.6755 481.046 39.5338 481.356C37.6981 485.368 35.273 490.669 13.457 480.457C13.4516 480.339 13.4473 480.217 13.4442 480.092ZM37.8855 477.32C40.0039 477.798 41.9358 478.184 43.457 478.457C45.1237 478.791 48.757 478.457 49.957 474.457C50.044 474.167 50.0334 473.856 49.9356 473.527C48.7143 477.461 45.1139 477.789 43.457 477.457C41.2717 477.065 38.2387 476.439 35.023 475.644C36.118 476.208 37.092 476.771 37.8855 477.32ZM45.7227 468.266C47.9578 468.741 50.1104 465.599 51.457 462.457C51.566 462.203 51.5438 461.905 51.4076 461.572C49.9025 465.033 47.4298 468.441 44.957 466.957C43.811 466.27 39.327 464.236 34.6091 462.154C38.673 464.077 42.7744 466.239 45.7227 468.266ZM50.275 459.04C51.7591 458.866 53.6191 458.098 54.957 455.957C55.1734 455.611 55.2084 455.176 55.0898 454.669C55.0575 454.771 55.0134 454.867 54.957 454.957C53.2731 457.652 50.762 458.172 49.2146 458.07C49.6132 458.406 49.969 458.73 50.275 459.04Z" fill="#A26E46"/>
<path d="M40.4569 475.457C39.6569 473.457 41.7902 471.29 42.9569 470.457C47.3569 472.457 47.1236 475.29 46.4569 476.457C44.7902 476.957 41.2569 477.457 40.4569 475.457Z" fill="#F8F8F8"/>
<path d="M41.457 463.957C40.657 462.357 43.7903 459.957 45.457 458.957C52.257 462.157 48.2903 464.957 45.457 465.957C44.457 465.957 42.257 465.557 41.457 463.957Z" fill="#F8F8F8"/>
<path d="M46.457 452.957L48.957 450.457C55.957 456.457 52.457 454.457 51.457 456.457C50.657 458.057 47.7903 454.79 46.457 452.957Z" fill="#F8F8F8"/>
<path d="M31.957 484.457C31.157 482.457 33.2903 479.957 34.457 478.957C39.957 480.957 37.957 480.957 37.457 483.457C37.057 485.457 33.6237 484.957 31.957 484.457Z" fill="#F8F8F8"/>
<path d="M127.457 724.957L80.957 607.957L135.457 582.957L187.957 677.457L127.457 724.957Z" fill="#A26E46"/>
<path d="M174.457 287.957L124.457 401.957L72.957 378.957L121.957 258.957L174.457 287.957Z" fill="#F7D4AC"/>
<path d="M123.457 258.957L73.457 378.957L70.457 377.457L119.957 257.457L123.457 258.957Z" fill="#F2DCC3"/>
<path d="M373.779 783.184C320.223 804.781 219.994 728.752 189.76 681.111L132.414 728.124C161.984 806.557 302.133 882.158 366.754 861.455L373.779 783.184Z" fill="#C4C4C4"/>
<path d="M136.414 732.124L133.597 733.944C170.68 819.396 293.354 875.47 366.908 867.364L365.809 861.952C245.815 873.164 146.215 763.238 136.414 732.124Z" fill="#A59B9B"/>
<path d="M319 181C263.4 165.4 199.833 238.833 175 289.5L123 259C143.8 177.8 264 89.5 330.5 103L319 181Z" fill="#EC3636" stroke="#EC3636"/>
<path d="M123 259L120 257.5C147.5 168.5 257 97 331 97L330.5 102.5C210 104.5 129.333 227 123 259Z" fill="#FC7070"/>
<path d="M75.6802 464.011C74.4363 467.652 74.3648 474.185 84.0303 471.189L75.6802 464.011Z" fill="white"/>
<path d="M128 725L188.5 677C197.7 677 199 683.333 198.5 686.5C179.333 702.667 140 735.3 136 736.5C132 737.7 129 729.333 128 725Z" fill="#6272A4" stroke="#6272A4"/>
<path d="M509 764.5C429 758.9 384.667 775.833 372.5 785L364.5 863L372.5 945.5H574.5V770.5L567.5 764.5C554.7 780.1 523.167 771 509 764.5Z" fill="#C4C4C4"/>
<path d="M509.5 758V765.5C545.1 781.9 563 772.333 567.5 765.5L566.5 758C561.3 762.4 526.333 759.833 509.5 758Z" fill="#D5D2D2"/>
<path d="M405 329C374.6 328.2 334.333 229 318 179.5L329.5 103C345.1 95.8 365.333 94.6667 373.5 95L400 112L405 86.5C417 79.7 443 74.3333 454.5 72.5C507.3 40.9 554.833 74.3333 572 95V181.5L545 150.5C522.6 126.1 492.333 127.167 478.5 135C495.3 145.8 528.833 214.167 545 258.5C549.4 287.3 500.5 317.5 475.5 329C453.9 348.6 419.5 337.167 405 329Z" fill="#EC3636"/>
<path d="M373.5 95C371.5 93 343.333 95.8334 330 97.5V103.5C352 91 376 97.5 373.5 95Z" fill="#FC7070"/>
<path d="M366 76C370 75.6 372.667 88.5 373.5 95L401.5 115L404.5 89.5C401.5 76 373.5 56.5 377 60.5C380.5 64.5 361 76.5 366 76Z" fill="#F3D2AC"/>
<path d="M385.802 79.4757C363.404 112.091 354.605 100.527 353.006 90.6674C326.769 77.8769 324.476 51.7629 326.609 40.3048C332.368 -5.74107 368.47 12.592 385.802 27.5143L394.601 23.5172C399.4 21.9184 393.321 34.8687 394.601 35.5083C395.881 36.1478 398.6 50.697 401 57.0923C395.881 69.8828 388.735 77.3439 385.802 79.4757Z" fill="#F2DCC3"/>
<path fill-rule="evenodd" clip-rule="evenodd" d="M355.73 97.7684C360.582 101.165 369.368 98.4944 383.802 77.4757C386.735 75.3439 393.881 67.8828 399 55.0923C397.904 52.1714 396.741 47.5497 395.679 43.3291C394.416 38.3086 393.296 33.8557 392.601 33.5083C392.132 33.2741 392.65 31.3888 393.26 29.1718C393.781 27.2753 394.369 25.136 394.463 23.5795L394.601 23.5172C397.643 22.5038 396.315 27.3348 395.26 31.1718C394.65 33.3888 394.132 35.2741 394.601 35.5083C395.296 35.8557 396.416 40.3086 397.679 45.3291C398.741 49.5497 399.904 54.1714 401 57.0923C395.881 69.8828 388.735 77.3439 385.802 79.4757C369.103 103.793 359.963 103.552 355.73 97.7684ZM351.21 89.7517C351.132 89.3895 351.064 89.0273 351.006 88.6674C346.057 86.255 341.96 83.3687 338.584 80.1962C341.924 83.751 346.077 87.0156 351.21 89.7517Z" fill="#F4D6B4"/>
<path d="M312.132 35.4909C295.533 41.1228 294.043 28.9724 295.373 22.1932C313.887 22.1932 338.2 11.2422 348.042 5.76666C381.239 -7.37457 396.454 4.98445 399.912 12.8066C405.658 15.9355 404.966 39.1412 403.902 50.353C407.094 55.985 402.572 56.35 399.912 55.8285L392.73 35.4909C397.837 20.4723 390.602 25.5828 386.346 30.0154H364.8C344.371 46.2855 331.284 40.4449 327.294 35.4909C319.633 28.6074 313.994 32.6228 312.132 35.4909Z" fill="#F2C41E"/>
<path d="M459.133 698.483C452.5 675.5 466.675 647.884 478.526 635.412C552.649 608.046 561.124 646.815 556.096 669.62C559.544 684.159 557.533 721.288 556.096 738.036C529.378 750.009 498.996 745.875 487.145 742.312C458 743.5 463 705.5 459.133 698.483Z" fill="#A26E46"/>
<path d="M509.006 656.986C505.546 648.438 480.173 646.301 469 646.301C475.487 626 505.762 627.068 521.98 626C559.823 626 559.103 655.205 556.58 670.877C558.31 670.877 558.119 693.671 557.758 704C553.433 676.647 523.422 660.548 509.006 656.986Z" fill="#B09886"/>
</svg>
